<svg
    width="57"
    height="56"
    viewBox="0 0 57 56"
    fill="none"
    xmlns="http://www.w3.org/2000/svg" 
>
    <path
    fillRule="evenodd"
    clipRule="evenodd"
    d="M33.3723 33.0838L42.6235 17.9017C43.0937 17.0779 42.4237 16.1865 41.7066 16.1865H31.2015C31.2015 16.1865 29.3324 14.5668 28.4155 13.747C27.9022 13.2893 27.9884 12.0039 28.9602 12.0039H47.0278C49.273 12.0039 49.8529 14.0216 48.7911 15.7527L34.3558 39.3517L33.3723 33.0838Z"
    fill="#333333"
    />
    <path
    fillRule="evenodd"
    clipRule="evenodd"
    d="M33.3711 33.0839L42.6224 17.9017C45.2085 14.7101 41.6506 12 41.6506 12H47.0266C49.2718 12 49.8518 14.0177 48.7899 15.7488L34.3546 39.3478L33.3711 33.0799V33.0839Z"
    fill="#333333"
    />
    <path
    fillRule="evenodd"
    clipRule="evenodd"
    d="M23.7632 22.9163L14.5119 38.0985C14.0417 38.9222 14.7117 39.8137 15.4288 39.8137H25.934C25.934 39.8137 27.803 41.4334 28.7199 42.2532C29.2332 42.7108 29.147 43.9962 28.1753 43.9962H10.1077C7.86243 43.9962 7.28251 41.9786 8.34439 40.2474L22.7797 16.6484L23.7632 22.9163Z"
    fill="#333333"
    />
    <path
    fillRule="evenodd"
    clipRule="evenodd"
    d="M23.7632 22.9163L14.5119 38.0985C11.9258 41.2901 15.4837 44.0002 15.4837 44.0002H10.1077C7.86243 44.0002 7.28251 41.9825 8.34439 40.2514L22.7797 16.6484L23.7632 22.9163Z"
    fill="#333333"
    />
</svg>