<svg width="259" height="259" viewBox="0 0 259 259" fill="none" xmlns="http://www.w3.org/2000/svg">
<circle cx="129.5" cy="129.5" r="129.5" fill="#001D9A"/>
<path d="M140.385 107.219L140.569 107.299L140.488 107.482L102.904 193.399L102.824 193.582L102.641 193.502L90.998 188.409L90.8147 188.329L90.8949 188.146L128.479 102.229L128.56 102.045L128.743 102.125L140.385 107.219Z" fill="#C0FD24" stroke="#C0FD24" stroke-width="0.4"/>
<path d="M176.601 113.2V113.4H176.401L82 113.4H81.8V113.2V100.492V100.292H82L176.401 100.292H176.601V100.492V113.2Z" fill="#C0FD24" stroke="#C0FD24" stroke-width="0.4"/>
<path d="M147.625 147.543L147.808 147.623L147.728 147.806L134.153 178.838L134.073 179.021L133.89 178.941L122.247 173.848L122.064 173.768L122.144 173.585L135.719 142.553L135.799 142.37L135.982 142.45L147.625 147.543Z" fill="#C0FD24" stroke="#C0FD24" stroke-width="0.4"/>
<path d="M139.186 93.231C146.705 93.231 152.801 87.1352 152.801 79.6155C152.801 72.0959 146.705 66 139.186 66C131.666 66 125.57 72.0959 125.57 79.6155C125.57 87.1352 131.666 93.231 139.186 93.231Z" fill="#C0FD24"/>
</svg>
